<?xml version="1.0" encoding="iso-8859-1"?>
<!-- Uploaded to: SVG Repo, www.svgrepo.com, Generator: SVG Repo Mixer Tools -->
<svg version="1.1" id="Layer_1" xmlns="http://www.w3.org/2000/svg" xmlns:xlink="http://www.w3.org/1999/xlink" 
	 viewBox="0 0 512 512" xml:space="preserve">
<path style="fill:#EE8700;" d="M489.739,345.043h-66.783c-9.217,0-16.696-7.473-16.696-16.696v-66.783
	c0-9.223,7.479-16.696,16.696-16.696h33.391c27.619,0,50.087,22.468,50.087,50.087v33.391
	C506.435,337.57,498.956,345.043,489.739,345.043z"/>
<path style="fill:#875334;" d="M456.348,411.826h-33.391c-9.22,0-16.696-7.475-16.696-16.696v-66.783
	c0-9.22,7.475-16.696,16.696-16.696h83.478v50.087C506.435,389.402,484.01,411.826,456.348,411.826z"/>
<path style="fill:#FFA733;" d="M89.043,345.043H22.261c-9.217,0-16.696-7.473-16.696-16.696v-33.391
	c0-27.619,22.468-50.087,50.087-50.087h33.391c9.217,0,16.696,7.473,16.696,16.696v66.783
	C105.739,337.57,98.261,345.043,89.043,345.043z"/>
<path style="fill:#95673F;" d="M89.043,411.826H55.652c-27.662,0-50.087-22.424-50.087-50.087v-50.087h83.478
	c9.22,0,16.696,7.475,16.696,16.696v66.783C105.739,404.351,98.264,411.826,89.043,411.826z"/>
<path style="fill:#6E6057;" d="M289.391,100.174h-66.783c-9.217,0-16.696-7.473-16.696-16.696V50.087
	C205.913,22.468,228.381,0,256,0s50.087,22.468,50.087,50.087v33.391C306.087,92.701,298.608,100.174,289.391,100.174z
	 M239.304,66.783h33.391V50.087c0-9.206-7.49-16.696-16.696-16.696s-16.696,7.49-16.696,16.696V66.783z"/>
<path style="fill:#615349;" d="M272.696,50.087v16.696H256v33.391h33.391c9.217,0,16.696-7.473,16.696-16.696V50.087
	C306.087,22.468,283.619,0,256,0v33.391C265.206,33.391,272.696,40.881,272.696,50.087z"/>
<path style="fill:#95673F;" d="M89.043,233.739c-9.217,0-16.696-7.473-16.696-16.696V50.087C72.348,22.468,94.816,0,122.435,0
	c13.359,0,25.935,5.218,35.403,14.684s14.684,22.038,14.684,35.403v51.201c0,5.961-3.174,11.473-8.337,14.456
	c-36.055,20.837-58.446,59.658-58.446,101.299C105.739,226.266,98.261,233.739,89.043,233.739z M155.826,101.288h0.109H155.826z"/>
<path style="fill:#875334;" d="M422.957,233.739c-9.217,0-16.696-7.473-16.696-16.696c0-41.641-22.391-80.462-58.446-101.299
	c-5.163-2.984-8.337-8.495-8.337-14.456V50.087C339.478,22.468,361.946,0,389.565,0c13.359,0,25.935,5.218,35.403,14.684
	s14.684,22.038,14.684,35.403v166.957C439.652,226.266,432.174,233.739,422.957,233.739z"/>
<path style="fill:#6E6057;" d="M422.957,411.826H89.043c-9.217,0-16.696-7.473-16.696-16.696V217.043
	c0-53.527,28.782-103.418,75.119-130.206c5.173-2.99,11.532-2.99,16.707-0.011c5.163,2.984,8.348,8.495,8.348,14.462v15.582
	c0,27.619,22.468,50.087,50.087,50.087h66.783c27.619,0,50.087-22.468,50.087-50.087v-15.581c0-5.967,3.184-11.479,8.348-14.462
	c5.185-2.984,11.543-2.984,16.707,0.011c46.337,26.788,75.119,76.679,75.119,130.206V395.13
	C439.652,404.353,432.174,411.826,422.957,411.826z"/>
<path style="fill:#615349;" d="M364.533,86.837c-5.163-2.994-11.522-2.994-16.707-0.011c-5.163,2.984-8.348,8.495-8.348,14.462
	v15.582c0,27.619-22.468,50.087-50.087,50.087H256v244.87h166.957c9.217,0,16.696-7.473,16.696-16.696V217.043
	C439.652,163.516,410.87,113.625,364.533,86.837z"/>
<path style="fill:#7B973A;" d="M422.957,512h-66.783c-9.217,0-16.696-7.473-16.696-16.696V395.13
	c0-9.223,7.479-16.696,16.696-16.696h66.783c27.619,0,50.087,22.468,50.087,50.087v33.391C473.043,489.532,450.576,512,422.957,512z
	"/>
<path style="fill:#85BB04;" d="M155.826,512H89.043c-27.619,0-50.087-22.468-50.087-50.087v-33.391
	c0-27.619,22.468-50.087,50.087-50.087h66.783c9.217,0,16.696,7.473,16.696,16.696v100.174C172.522,504.527,165.043,512,155.826,512
	z"/>
<path style="fill:#9DCA40;" d="M372.87,512H139.13V378.435H372.87V512z"/>
<rect x="256" y="378.435" style="fill:#85BB04;" width="116.87" height="133.565"/>
<path style="fill:#FFA733;" d="M356.174,345.043H155.826c-9.217,0-16.696-7.473-16.696-16.696v-66.783
	c0-9.223,7.479-16.696,16.696-16.696h200.348c9.217,0,16.696,7.473,16.696,16.696v66.783
	C372.87,337.57,365.391,345.043,356.174,345.043z"/>
<path style="fill:#EE8700;" d="M356.174,244.87H256v100.174h100.174c9.217,0,16.696-7.473,16.696-16.696v-66.783
	C372.87,252.343,365.391,244.87,356.174,244.87z"/>
<path style="fill:#FFA733;" d="M289.391,200.348h-66.783c-46.032,0-83.478-37.446-83.478-83.478v-15.581
	c0-5.957,3.174-11.457,8.326-14.446c22.642-13.125,48.631-20.059,75.153-20.059h66.783c26.522,0,52.511,6.934,75.153,20.059
	c5.152,2.99,8.326,8.489,8.326,14.446v15.581C372.87,162.902,335.423,200.348,289.391,200.348z"/>
<path style="fill:#EE8700;" d="M364.544,86.842c-22.642-13.125-48.631-20.059-75.153-20.059H256v133.565h33.391
	c46.032,0,83.478-37.446,83.478-83.478v-15.581C372.87,95.331,369.695,89.832,364.544,86.842z"/>
<path style="fill:#F5DEB2;" d="M256,233.739c-9.217,0-16.696-7.473-16.696-16.696v-50.087c0-9.223,7.479-16.696,16.696-16.696
	s16.696,7.473,16.696,16.696v50.087C272.696,226.266,265.217,233.739,256,233.739z"/>
<path style="fill:#EFCB99;" d="M272.696,217.043v-50.087c0-9.223-7.479-16.696-16.696-16.696v83.478
	C265.217,233.739,272.696,226.266,272.696,217.043z"/>
</svg>